<?xml version="1.0" encoding="UTF-8" standalone="no"?>
<!DOCTYPE svg PUBLIC "-//W3C//DTD SVG 1.1//EN" "http://www.w3.org/Graphics/SVG/1.1/DTD/svg11.dtd">
<!-- Created with Vectornator (http://vectornator.io/) -->
<svg viewBox="0 0 295.8 295.8" preserveAspectRatio="xMidYMid meet" stroke-miterlimit="10" style="fill-rule:nonzero;clip-rule:evenodd;stroke-linecap:round;stroke-linejoin:round;" version="1.1" xml:space="preserve" fill="currentColor" xmlns="http://www.w3.org/2000/svg" xmlns:xlink="http://www.w3.org/1999/xlink">
<defs/>
<g id="Ohne-Titel" transform="translate(0,-13.479)">
<path d="M295.8 58.9333C290.3 54.1333 276.5 42.4333 271.7 15.2333L233.2 0.133333C233.2 0.133333 232.5-0.166667 232.5 0.133333C232.5 0.433333 232.5 0.433333 232.2 0.433333C221.9 11.1333 185.8 3.23333 148.6 3.23333L146.9 3.23333C109.7 3.23333 73.6 11.1333 63.3 0.433333C63 0.133333 63.3 0.133333 63 0.133333C62.7 0.133333 62.3 0.133333 62.3 0.133333L24.1 15.2333C19.3 42.4333 5.9 54.1333 0 58.9333C9.3 65.8333 18.9 75.8333 18.9 89.9333C18.9 102.333 5.8 140.533 5.8 172.533C5.8 259.533 74.6 292.933 116.9 303.633C127.6 306.433 140.6 316.733 147.2 322.533C147.5 322.833 148.2 322.833 148.9 322.533C155.4 316.733 168.5 306.333 179.2 303.633C221.5 292.933 290.3 259.933 290.3 172.933C290.3 140.933 276.9 102.433 276.9 90.3333C276.8 75.7333 286.5 65.8333 295.8 58.9333M30.5 23.8333C30.8 22.4333 30.8 21.0333 30.8 20.0333L61.8 8.63333C61.8 8.63333 62.1 14.8333 94.8 13.4333C96.2 13.4333 102 13.1333 103.7 13.1333C117.1 12.1333 130.9 11.4333 145 11.4333L150.8 11.4333C164.9 11.4333 178.7 12.4333 192.1 13.1333C193.8 13.1333 199.7 13.4333 201 13.4333C233.7 14.8333 234 8.63333 234 8.63333L265 20.0333C265 21.4333 265 22.8333 265.3 23.8333C268.4 36.9333 274.6 49.3333 283.9 58.9333L11.9 58.9333C21.2 49.2333 27.4 36.9333 30.5 23.8333M282.3 172.833C282.3 260.533 208.7 288.433 177 296.333C166.3 299.133 154.3 307.733 147.8 313.233C140.9 307.733 129.2 299.133 118.6 296.333C86.9 288.433 13.3 260.533 13.3 172.833C13.3 153.933 18.1 132.533 21.9 115.333C24.3 107.033 25.7 98.4333 26.4 90.2333C26.4 81.6333 23.6 73.3333 18.1 66.5333L277.2 66.5333C272 73.4333 269.3 81.6333 268.9 90.2333C269.6 98.8333 271 107.133 273.4 115.333C277.5 132.533 282.3 153.833 282.3 172.833"  fill-rule="nonzero" opacity="1" stroke="none"/>
<path d="M254.7 27.6792C254.7 31.0792 254.7 33.1792 254.7 36.5792C247.1 35.8792 243.3 35.5792 235.4 34.8792C235.4 31.0792 235.4 29.0792 235.4 25.2792C220.3 23.5792 203.7 22.1792 187.6 20.7792L187.6 25.5792C186.6 22.4792 184.2 20.7792 179.3 20.3792C170 20.0792 161.1 19.6792 151.8 19.6792L151.8 48.3792L137 19.7792C132.2 19.7792 129.8 19.7792 125.3 20.0792C120.8 28.6792 116.7 37.2792 112.2 45.8792C112.2 44.8792 112.5 44.1792 112.5 43.0792C112.5 38.2792 111.1 36.1792 107 35.8792L107 35.8792C109.4 35.1792 111.5 33.7792 111.5 28.6792C111.5 22.4792 108.1 20.7792 100.5 21.0792C91.9 21.7792 83 22.4792 74.4 23.4792C74.4 33.7792 74.4 39.2792 74.4 49.5792C69.6 40.9792 64.4 32.6792 59.3 25.1792C54.5 25.8792 52.1 26.1792 47.6 26.8792C42.4 35.1792 37.3 43.3792 31.4 50.9792L41.7 50.9792C42.7 49.2792 43.4 48.5792 44.5 46.8792L63.1 46.5792L65.9 51.3792L103.7 51.3792C106.1 51.6792 108.5 51.0792 110.6 49.6792C110.3 50.3792 109.9 50.6792 109.6 51.3792L119.9 51.3792C120.9 49.2792 121.6 47.9792 122.7 45.8792L141.3 45.8792L144.1 51.3792L161.6 51.3792L161.6 43.0792L176 43.0792C178.8 43.0792 179.8 44.0792 179.8 47.5792L179.8 51.3792L188.7 51.3792C188.7 49.2792 188.7 48.2792 188.7 46.1792C188.7 40.9792 186.6 39.9792 183.9 39.2792L183.9 39.2792C188 38.2792 189.1 35.8792 189.1 31.6792L189.1 29.5792C189.1 28.8792 189.1 28.5792 189.1 28.1792L201.5 28.8792C201.5 37.7792 201.5 42.2792 201.5 51.2792L210.4 51.2792C210.4 42.6792 210.4 38.1792 210.4 29.5792C216.9 29.8792 220.4 30.2792 227.3 30.9792C227.3 39.2792 227.3 43.3792 227.3 51.2792L236.2 51.2792C236.2 47.4792 236.2 45.4792 236.2 41.2792C243.8 41.5792 247.6 41.9792 255.5 42.2792C255.5 45.6792 255.5 47.4792 255.5 50.8792L264.4 50.8792L264.4 28.8792C261 28.1792 258.9 27.4792 255.5 27.1792M47.6 41.7792C50 37.9792 51 35.9792 53.4 32.1792C55.8 35.5792 56.8 37.3792 59.2 41.4792L47.6 41.7792M83.7 29.3792C90.2 29.0792 93.3 28.6792 99.9 28.3792C101.6 28.3792 102.7 28.6792 102.7 30.7792C102.7 32.4792 101.7 33.1792 99.9 33.1792C93.4 33.4792 90.3 33.4792 83.7 33.8792L83.7 29.3792M100.2 44.1792C93.7 44.1792 90.6 44.1792 84 44.4792C84 42.7792 84 41.6792 84 39.9792C90.5 39.6792 93.6 39.6792 100.5 39.2792C102.6 39.2792 103.9 39.5792 103.9 41.6792C103.9 43.7792 102.3 44.1792 100.2 44.1792M126 39.0792C128.4 34.2792 129.4 31.8792 131.8 27.0792C134.2 31.8792 135.2 34.2792 137.6 39.0792L126 39.0792M179.3 32.1792C179.3 34.5792 178.3 35.2792 175.9 35.2792L160.8 34.9792L160.8 27.7792C166.6 27.7792 169.4 27.7792 174.9 28.0792C177.7 28.0792 179 28.7792 179 31.4792L179.3 32.1792"  fill-rule="nonzero" opacity="1" stroke="none"/>
<path d="M174.5 227.579L185.5 226.179L195.5 218.979L195.5 248.879L180.4 250.679L174.5 246.879L174.5 227.579Z"  fill-rule="nonzero" opacity="1" stroke="none"/>
<path d="M173.5 248.579L180 252.679L194.8 251.379L172.1 277.779L162.8 269.879L161.1 263.679L173.5 248.579Z"  fill-rule="nonzero" opacity="1" stroke="none"/>
<path d="M159.4 264.779L161.1 270.979L169.7 278.879L142.5 284.679L139.8 276.779L141.8 271.679L159.4 264.779Z"  fill-rule="nonzero" opacity="1" stroke="none"/>
<path d="M140.1 271.679L137.7 276.779L140.5 285.379L110.9 261.279L117.8 258.579L140.1 271.679Z"  fill-rule="nonzero" opacity="1" stroke="none"/>
<path d="M128.4 164.979L86.1 196.679L76.5 176.979L95.7 173.279L118.1 137.079L94.4 150.879L108.1 101.379L60.7 148.779L73.7 214.879L141.2 181.479L128.4 164.979Z"  fill-rule="nonzero" opacity="1" stroke="none"/>
<path d="M173.8 142.579L224.8 127.779L215.1 108.579L199.6 122.679L157.3 118.179L183.5 106.879L136 87.5792L202.4 78.5792L246.8 129.579L179.7 162.579L173.8 142.579Z"  fill-rule="nonzero" opacity="1" stroke="none"/>
<path d="M161.8 146.079L152.9 157.079L138.8 157.379L142.5 180.779L178.3 163.279L161.8 146.079Z"  fill-rule="nonzero" opacity="1" stroke="none"/>
<path d="M214.8 202.179L211.7 205.579L192.1 206.979L190 199.779L211 197.679L211.7 188.379L208.9 191.779L188.3 193.179L186.2 186.279L207.6 184.579L208.9 174.979L205.8 178.379L184.5 179.779L182.4 173.279L204.1 171.179L205.8 161.579L203.1 164.979L180.4 164.679L141.8 183.879L128.8 201.479L124.3 201.779L132.9 206.279L147.7 190.479L151.8 195.979L137.7 212.079L133.2 212.479L141.5 217.279L156 201.479L160.1 206.979L146.3 222.479L142.2 222.779L149.8 227.979L164.2 212.479L168.7 218.279L155.6 233.079L151.1 233.479L159 238.579L172.8 223.779L173.8 225.579L184.9 223.779L195.2 216.579L193.8 213.479L213.8 211.379L214.8 202.179Z"  fill-rule="nonzero" opacity="1" stroke="none"/>
<path d="M116 255.779L97.5 263.379L110.5 216.579L116 255.779Z"  fill-rule="nonzero" opacity="1" stroke="none"/>
</g>
</svg>
