<svg fill="currentColor" xmlns:dc="http://purl.org/dc/elements/1.1/" xmlns:cc="http://creativecommons.org/ns#" xmlns:rdf="http://www.w3.org/1999/02/22-rdf-syntax-ns#" xmlns:svg="http://www.w3.org/2000/svg" xmlns="http://www.w3.org/2000/svg" xmlns:sodipodi="http://sodipodi.sourceforge.net/DTD/sodipodi-0.dtd" xmlns:inkscape="http://www.inkscape.org/namespaces/inkscape" viewBox="0 0 473 485.28238" xml:space="preserve" version="1.1" id="svg3355" inkscape:version="0.91 r13725" sodipodi:docname="Autobianchi-Logo.svg">
	<namedview pagecolor="#ffffff" bordercolor="#666666" borderopacity="1" objecttolerance="10" gridtolerance="10" guidetolerance="10" inkscape:pageopacity="0" inkscape:pageshadow="2" inkscape:window-width="640" inkscape:window-height="480" id="namedview3358" showgrid="false" fit-margin-top="0" fit-margin-left="0" fit-margin-right="0" fit-margin-bottom="0" inkscape:zoom="3.1339811" inkscape:cx="142.24377" inkscape:cy="145.94002" inkscape:current-layer="svg3355" />
	<metadata id="metadata3361">
		<RDF>
			<Work rdf:about="">
				<format>
					image/svg+xml
				</format>
				<type rdf:resource="http://purl.org/dc/dcmitype/StillImage" />
				<title />
			</Work>
		</RDF>
	</metadata>
	<defs id="defs3359">
		<clipPath id="clipPath3369" clipPathUnits="userSpaceOnUse">
			<path id="path3371" d="m 0,841.89 595.28,0 L 595.28,0 0,0 0,841.89 Z" inkscape:connector-curvature="0" />
		</clipPath>
	</defs>
	<g transform="matrix(2.0768386,0,0,-2.0768386,-383.1599,1113.0739)" id="g3363">
		<g id="g3365">
			<g clip-path="url(#clipPath3369)" id="g3367">
				<g transform="translate(194.7549,347.8643)" id="g3373">
					<path id="path3375" style="fill-opacity:1;fill-rule:nonzero;stroke:none" d="M 0,0 112.81,0 56.403,97.695 0,0 Z M 207.225,0 103.609,179.46 68.527,118.695 137.058,0 207.225,0 Z M 0.131,-0.165 c 28.997,-24.139 65.687,-37.417 103.48,-37.417 37.795,0 74.486,13.278 103.483,37.417 1.589,9.165 2.393,18.527 2.393,27.852 0,67.677 -42.485,128.531 -105.876,151.89 C 40.222,156.219 -2.263,95.364 -2.263,27.687 c 0,-9.328 0.805,-18.691 2.394,-27.852 m 103.48,-45.417 c -40.164,0 -79.141,14.289 -109.75,40.235 l -1.091,0.926 -0.257,1.407 c -1.842,10.083 -2.776,20.413 -2.776,30.701 0,71.523 45.221,135.787 112.525,159.911 l 1.349,0.484 1.35,-0.484 C 172.267,163.474 217.487,99.21 217.487,27.687 c 0,-10.285 -0.933,-20.614 -2.775,-30.7 l -0.257,-1.407 -1.091,-0.925 C 182.755,-31.292 143.777,-45.582 103.611,-45.582" inkscape:connector-curvature="0" />
				</g>
			</g>
		</g>
	</g>
</svg>
