<?xml version="1.0" encoding="UTF-8"?>
<svg xmlns="http://www.w3.org/2000/svg" xmlns:xlink="http://www.w3.org/1999/xlink" viewBox="0 0 112.5 112.5" version="1.1" fill="currentColor">
	<g id="surface3303">
		<path style=" stroke:none;fill-rule:nonzero;fill-opacity:1;" d="M 56 11.199219 C 52.640625 11.199219 49.019531 12.78125 44.960938 15.128906 C 40.902344 17.476562 36.476562 20.683594 32.054688 24.289062 C 23.210938 31.5 14.417969 40.273438 9.046875 46.960938 C 7.597656 48.765625 6.71875 51.011719 6.71875 53.390625 L 6.71875 60.078125 C 6.71875 61.601562 6.832031 63.242188 8.480469 64.378906 C 9.300781 64.945312 10.449219 65.0625 11.324219 64.832031 C 12.195312 64.605469 12.894531 64.152344 13.597656 63.574219 C 22.152344 56.519531 30.835938 49.488281 38.417969 44.269531 C 45.996094 39.054688 52.695312 35.839844 56 35.839844 C 59.304688 35.839844 66.003906 39.054688 73.582031 44.269531 C 81.164062 49.488281 89.847656 56.519531 98.402344 63.574219 C 99.105469 64.152344 99.804688 64.605469 100.675781 64.832031 C 101.550781 65.0625 102.699219 64.945312 103.519531 64.378906 C 105.167969 63.242188 105.28125 61.601562 105.28125 60.078125 L 105.28125 53.390625 C 105.28125 51.011719 104.402344 48.765625 102.953125 46.960938 C 97.582031 40.273438 88.789062 31.5 79.945312 24.289062 C 75.523438 20.683594 71.097656 17.476562 67.039062 15.128906 C 62.980469 12.78125 59.359375 11.199219 56 11.199219 Z M 56 15.679688 C 57.761719 15.679688 61.046875 16.839844 64.792969 19.007812 C 68.539062 21.175781 72.820312 24.261719 77.113281 27.765625 C 85.703125 34.765625 94.390625 43.453125 99.457031 49.765625 C 99.457031 49.765625 99.460938 49.765625 99.460938 49.765625 C 100.335938 50.851562 100.800781 52.101562 100.800781 53.390625 L 100.800781 59.761719 C 92.375 52.820312 83.789062 45.859375 76.121094 40.582031 C 68.308594 35.207031 61.65625 31.359375 56 31.359375 C 50.34375 31.359375 43.691406 35.207031 35.878906 40.582031 C 28.210938 45.859375 19.625 52.820312 11.199219 59.761719 L 11.199219 53.390625 C 11.199219 52.101562 11.664062 50.851562 12.539062 49.765625 C 12.539062 49.765625 12.542969 49.765625 12.542969 49.765625 C 17.609375 43.453125 26.296875 34.765625 34.886719 27.765625 C 39.179688 24.261719 43.460938 21.175781 47.207031 19.007812 C 50.953125 16.839844 54.238281 15.679688 56 15.679688 Z M 56 47.039062 C 52.640625 47.039062 49.019531 48.621094 44.960938 50.96875 C 40.902344 53.316406 36.476562 56.523438 32.054688 60.128906 C 23.210938 67.339844 14.417969 76.113281 9.046875 82.800781 C 7.597656 84.605469 6.71875 86.851562 6.71875 89.234375 L 6.71875 95.917969 C 6.71875 97.441406 6.832031 99.082031 8.480469 100.21875 C 9.300781 100.785156 10.449219 100.902344 11.324219 100.671875 C 12.195312 100.445312 12.894531 99.992188 13.597656 99.414062 C 22.152344 92.359375 30.835938 85.328125 38.417969 80.109375 C 45.996094 74.894531 52.695312 71.679688 56 71.679688 C 59.304688 71.679688 66.003906 74.894531 73.582031 80.109375 C 81.164062 85.328125 89.847656 92.359375 98.402344 99.414062 C 99.105469 99.992188 99.804688 100.445312 100.675781 100.671875 C 101.550781 100.902344 102.699219 100.785156 103.519531 100.21875 C 105.167969 99.082031 105.28125 97.441406 105.28125 95.917969 L 105.28125 89.234375 C 105.28125 86.851562 104.402344 84.605469 102.953125 82.800781 C 97.582031 76.113281 88.789062 67.339844 79.945312 60.128906 C 75.523438 56.523438 71.097656 53.316406 67.039062 50.96875 C 62.980469 48.621094 59.359375 47.039062 56 47.039062 Z M 56 51.519531 C 57.761719 51.519531 61.046875 52.679688 64.792969 54.847656 C 68.539062 57.015625 72.820312 60.101562 77.113281 63.605469 C 85.703125 70.605469 94.390625 79.296875 99.457031 85.605469 C 99.457031 85.605469 99.460938 85.605469 99.460938 85.605469 C 100.335938 86.691406 100.800781 87.941406 100.800781 89.234375 L 100.800781 95.601562 C 92.375 88.660156 83.789062 81.699219 76.121094 76.421875 C 68.308594 71.046875 61.65625 67.199219 56 67.199219 C 50.34375 67.199219 43.691406 71.046875 35.878906 76.421875 C 28.210938 81.699219 19.625 88.660156 11.199219 95.601562 L 11.199219 89.234375 C 11.199219 87.941406 11.664062 86.691406 12.539062 85.605469 C 12.539062 85.605469 12.542969 85.605469 12.542969 85.605469 C 17.609375 79.296875 26.296875 70.605469 34.886719 63.605469 C 39.179688 60.101562 43.460938 57.015625 47.207031 54.847656 C 50.953125 52.679688 54.238281 51.519531 56 51.519531 Z M 56 51.519531 " />
	</g>
</svg>
