<?xml version="1.0" encoding="UTF-8" standalone="no"?>
<!DOCTYPE svg PUBLIC "-//W3C//DTD SVG 1.1//EN" "http://www.w3.org/Graphics/SVG/1.1/DTD/svg11.dtd">
<!-- Created with Vectornator (http://vectornator.io/) -->
<svg height="180.59964726631392mm" stroke-miterlimit="10" fill="currentColor" style="fill-rule:nonzero;clip-rule:evenodd;stroke-linecap:round;stroke-linejoin:round;" version="1.1" viewBox="0 0 512 512" width="180.59964726631392mm" xml:space="preserve" xmlns="http://www.w3.org/2000/svg" xmlns:xlink="http://www.w3.org/1999/xlink">
<defs/>
<g id="layer1">
<path d="M0 184.446L0 232.015L176.051 232.015L176.051 255.999L176.051 279.985L0 279.985L0 327.554L194.384 327.554C198.843 327.554 201.782 326.317 204.821 323.262L255.999 273.479L307.179 323.262C310.218 326.317 313.157 327.554 317.616 327.554L512 327.554L512 279.985L335.948 279.985L335.948 255.999L335.948 232.015L512 232.015L512 184.446L317.616 184.446C313.157 184.446 310.218 185.683 307.179 188.738L255.999 238.521L204.821 188.738C201.782 185.683 198.843 184.446 194.384 184.446L0 184.446Z"  fill-rule="evenodd" opacity="1" stroke="none"/>
</g>
</svg>
