<?xml version="1.0" encoding="UTF-8" standalone="no"?>
<!DOCTYPE svg PUBLIC "-//W3C//DTD SVG 1.1//EN" "http://www.w3.org/Graphics/SVG/1.1/DTD/svg11.dtd">
<!-- Created with Vectornator (http://vectornator.io/) -->
<svg stroke-miterlimit="10" style="fill-rule:nonzero;clip-rule:evenodd;stroke-linecap:round;stroke-linejoin:round;" version="1.1" viewBox="0 0 512 512" fill="currentColor" xml:space="preserve" xmlns="http://www.w3.org/2000/svg" xmlns:xlink="http://www.w3.org/1999/xlink">
<defs/>
<g id="Ohne-Titel">
<path d="M454.936 43.5807C395.295 14.5204 328.394 0 256.523 0C184.652 0 117.741 14.5302 58.1101 43.5807C38.6099 53.1408 14.9095 74.1613 14.9095 120.422C14.9095 127.682 15.2895 135.332 16.4395 142.982L16.8195 146.422C19.4995 167.452 28.2897 232.063 60.7803 299.725C93.2807 367.776 123.481 411.356 172.032 459.907C172.412 460.287 208.733 496.228 226.703 505.398C239.703 511.898 252.313 512.278 255.763 511.898C259.203 511.898 271.823 511.508 284.814 505.398C302.784 496.228 339.104 460.287 339.484 459.907C388.035 411.356 418.236 367.776 450.736 299.725C483.236 232.054 491.647 167.443 494.697 146.422L495.087 142.982C504.627 81.8113 478.257 55.4309 454.936 43.5807ZM466.397 210.643C459.897 235.114 450.726 263.784 436.576 292.835C404.846 358.976 375.785 401.026 328.385 448.437C319.205 457.617 290.534 484.377 277.924 490.868C267.604 495.838 256.893 495.838 256.513 495.838C256.133 495.838 245.423 496.228 235.103 490.868C222.483 484.748 193.813 457.607 184.642 448.437C156.352 420.146 134.181 393.386 114.301 362.416C108.181 351.715 100.151 332.975 123.091 308.125C153.292 276.394 215.223 242.364 343.685 222.104C398.355 213.694 438.116 210.634 466.406 209.873L466.406 210.643L466.397 210.643ZM479.397 140.682L479.017 144.502C477.867 152.913 475.577 168.973 471.367 189.613C447.286 189.233 367.765 188.853 256.513 194.963C138.762 201.083 72.2407 219.434 55.4204 240.844C40.8903 196.883 35.9202 159.793 34.0101 144.882L33.6301 141.062C32.4801 133.802 32.1001 126.912 32.1001 120.802C32.1001 90.9815 43.1902 69.9513 65.7406 59.2511C128.822 28.6705 195.343 17.2003 256.513 17.2003C317.684 17.2003 384.585 28.6705 447.286 59.2511C474.427 71.8711 485.137 99.7718 479.397 140.682Z" fill-rule="nonzero" opacity="1" stroke="none"/>
<path d="M114.681 90.6015L84.1007 90.6015L70.3404 155.973L102.451 155.973C122.711 155.973 138.002 143.742 142.212 124.242C146.412 104.742 141.062 90.6015 114.681 90.6015ZM115.441 123.472C114.291 129.972 112.761 134.562 110.471 137.232C108.181 139.912 105.501 141.442 101.291 141.442L98.6113 141.442L106.261 105.892L108.941 105.892C113.141 105.892 115.061 107.422 116.201 110.102C117.351 112.392 116.971 116.982 115.441 123.472Z" fill-rule="nonzero" opacity="1" stroke="none"/>
<path d="M172.402 157.883C152.522 157.883 142.962 149.853 146.402 134.182L155.582 90.6015L181.582 90.6015L172.402 133.042C171.252 138.012 173.162 140.302 176.222 140.302C179.282 140.302 181.953 138.392 182.722 133.042L191.902 90.6015L217.903 90.6015L208.723 134.182C205.283 149.853 192.283 157.883 172.402 157.883Z" fill-rule="nonzero" opacity="1" stroke="none"/>
<path d="M243.133 157.883C220.193 157.883 212.553 143.733 217.133 123.092C220.953 102.832 235.863 89.0715 258.043 89.0715C274.484 89.0715 287.094 95.9516 282.894 115.072L259.193 115.072C260.343 107.812 258.043 106.282 254.983 106.282C248.103 106.282 246.193 113.162 243.893 123.482C241.983 133.422 240.833 140.682 247.333 140.682C250.773 140.682 253.453 138.772 255.363 131.892L279.444 131.892C275.634 149.853 259.573 157.883 243.133 157.883Z" fill-rule="nonzero" opacity="1" stroke="none"/>
<path d="M381.915 155.973L356.295 155.973L366.235 108.182L350.175 108.182L353.995 90.5917L412.106 90.5917L408.286 108.182L392.226 108.182L381.915 155.973Z" fill-rule="nonzero" opacity="1" stroke="none"/>
<path d="M428.936 155.973L402.936 155.973L416.696 90.6015L442.696 90.6015L428.936 155.973Z" fill-rule="nonzero" opacity="1" stroke="none"/>
<path d="M341.385 90.6015L307.744 90.6015L272.954 155.973L297.804 155.973L302.774 145.652L321.504 145.652L321.884 155.973L348.645 155.973L341.385 90.6015ZM320.744 129.592L309.654 129.592L320.744 105.122L320.744 129.592Z" fill-rule="nonzero" opacity="1" stroke="none"/>
</g>
</svg>
