<?xml version="1.0" encoding="UTF-8"?>
<svg xmlns="http://www.w3.org/2000/svg" xmlns:xlink="http://www.w3.org/1999/xlink"  viewBox="0 0 112.5 112.5" version="1.1" fill="currentColor" >
<g id="surface3427">
<path style=" stroke:none;fill-rule:nonzero;fill-opacity:1;" d="M 5.601562 44.800781 L 10.078125 44.800781 C 10.699219 44.800781 11.199219 45.300781 11.199219 45.921875 L 11.199219 68.320312 C 11.199219 68.9375 10.699219 69.441406 10.078125 69.441406 L 5.601562 69.441406 C 4.980469 69.441406 4.480469 68.9375 4.480469 68.320312 L 4.480469 45.921875 C 4.480469 45.300781 4.980469 44.800781 5.601562 44.800781 Z M 5.601562 44.800781 "/>
<path style=" stroke:none;fill-rule:nonzero;fill-opacity:1;" d="M 16.832031 44.800781 L 21.4375 44.800781 C 21.992188 44.835938 22.449219 45.246094 22.542969 45.792969 L 25.804688 59.359375 C 25.925781 59.871094 26.386719 60.234375 26.910156 60.234375 C 27.4375 60.234375 27.894531 59.871094 28.019531 59.359375 L 31.28125 45.792969 C 31.375 45.246094 31.832031 44.835938 32.386719 44.800781 L 34.6875 44.800781 C 35.070312 44.847656 35.414062 45.058594 35.628906 45.378906 C 35.84375 45.699219 35.910156 46.09375 35.808594 46.464844 L 31.882812 66.71875 C 31.578125 68.296875 30.195312 69.4375 28.589844 69.441406 L 22.929688 69.441406 C 21.320312 69.4375 19.9375 68.296875 19.632812 66.71875 L 15.707031 46.464844 C 15.605469 46.09375 15.671875 45.695312 15.886719 45.375 C 16.105469 45.054688 16.449219 44.847656 16.832031 44.800781 Z M 16.832031 44.800781 "/>
<path style=" stroke:none;fill-rule:nonzero;fill-opacity:1;" d="M 58.238281 46.167969 L 58.238281 48.90625 C 58.265625 49.636719 57.691406 50.25 56.960938 50.273438 L 49.28125 50.273438 C 48.546875 50.300781 47.976562 50.914062 48 51.644531 L 48 54.382812 L 54.402344 54.382812 C 55.132812 54.410156 55.703125 55.019531 55.679688 55.75 L 55.679688 58.488281 C 55.703125 59.21875 55.132812 59.832031 54.402344 59.855469 L 48 59.855469 L 48 62.59375 C 47.976562 63.328125 48.546875 63.941406 49.28125 63.964844 L 56.960938 63.964844 C 57.691406 63.992188 58.265625 64.601562 58.238281 65.335938 L 58.238281 68.070312 C 58.261719 68.800781 57.691406 69.414062 56.960938 69.441406 L 42.878906 69.441406 C 41.417969 69.390625 40.273438 68.164062 40.320312 66.703125 L 40.320312 47.539062 C 40.273438 46.074219 41.417969 44.851562 42.878906 44.800781 L 56.960938 44.800781 C 57.691406 44.828125 58.261719 45.4375 58.238281 46.167969 Z M 58.238281 46.167969 "/>
<path style=" stroke:none;fill-rule:nonzero;fill-opacity:1;" d="M 79.359375 44.800781 L 70.402344 44.800781 C 66.015625 44.953125 62.578125 48.625 62.71875 53.015625 L 62.71875 61.226562 C 62.578125 65.613281 66.015625 69.289062 70.402344 69.441406 L 79.359375 69.441406 C 80.089844 69.414062 80.664062 68.800781 80.640625 68.070312 L 80.640625 65.335938 C 80.664062 64.601562 80.089844 63.992188 79.359375 63.964844 L 72.960938 63.964844 C 71.496094 63.914062 70.351562 62.6875 70.402344 61.226562 L 70.402344 53.015625 C 70.351562 51.550781 71.496094 50.328125 72.960938 50.273438 L 79.359375 50.273438 C 80.089844 50.25 80.664062 49.636719 80.640625 48.90625 L 80.640625 46.167969 C 80.664062 45.4375 80.089844 44.828125 79.359375 44.800781 Z M 79.359375 44.800781 "/>
<path style=" stroke:none;fill-rule:nonzero;fill-opacity:1;" d="M 98.558594 44.800781 L 94.078125 44.800781 C 89.132812 44.800781 85.121094 49.703125 85.121094 55.75 L 85.121094 58.488281 C 85.121094 64.535156 89.132812 69.441406 94.078125 69.441406 L 98.558594 69.441406 C 103.507812 69.441406 107.519531 64.535156 107.519531 58.488281 L 107.519531 55.75 C 107.519531 49.703125 103.507812 44.800781 98.558594 44.800781 Z M 100.800781 58.488281 C 101.046875 61.230469 99.054688 63.664062 96.320312 63.964844 C 93.585938 63.664062 91.59375 61.230469 91.839844 58.488281 L 91.839844 55.75 C 91.59375 53.011719 93.585938 50.574219 96.320312 50.273438 C 99.054688 50.574219 101.046875 53.011719 100.800781 55.75 Z M 100.800781 58.488281 "/>
</g>
</svg>
