<?xml version="1.0" encoding="UTF-8" standalone="no"?>
<!DOCTYPE svg PUBLIC "-//W3C//DTD SVG 1.1//EN" "http://www.w3.org/Graphics/SVG/1.1/DTD/svg11.dtd">
<!-- Created with Vectornator (http://vectornator.io/) -->
<svg  stroke-miterlimit="10" fill="currentColor" style="fill-rule:nonzero;clip-rule:evenodd;stroke-linecap:round;stroke-linejoin:round;" version="1.1" viewBox="0 0 512 512" xml:space="preserve" xmlns="http://www.w3.org/2000/svg" xmlns:xlink="http://www.w3.org/1999/xlink">
<defs/>
<g id="g1">
<g opacity="1">
<path d="M256.75 2.375C175.318 2.18663 93.9098 30.7999 12.4688 88.25C-3.95514 291.512 77.0136 434.326 256.969 511.719C425.731 442.36 523.47 306.362 501.094 89.4062C419.618 31.562 338.182 2.56337 256.75 2.375ZM256.812 11.0938C377.306 11.0938 475.563 109.413 475.562 229.906C475.562 350.397 377.306 448.656 256.812 448.656C136.319 448.656 38 350.397 38 229.906C38 109.413 136.319 11.0938 256.812 11.0938Z"  fill-rule="nonzero" opacity="1" stroke="none"/>
<path d="M256.822 11.0899C377.316 11.0899 475.575 109.421 475.575 229.915C475.575 350.406 377.316 448.668 256.822 448.668C136.328 448.668 37.9967 350.406 37.9967 229.915C37.9967 109.421 136.328 11.0899 256.822 11.0899L256.822 11.0899" fill="#ffffff" fill-rule="evenodd" opacity="0" stroke="none"/>
<path d="M256.812 23.2812C142.99 23.2812 50.125 116.084 50.125 229.906C50.125 343.656 142.99 436.562 256.812 436.562C370.562 436.563 463.437 343.656 463.438 229.906C463.437 116.084 370.562 23.2813 256.812 23.2812ZM256.812 28.0938C367.91 28.0938 458.563 118.736 458.562 229.906C458.562 341.001 367.91 431.656 256.812 431.656C145.642 431.656 55 341.001 55 229.906C55 118.736 145.642 28.0938 256.812 28.0938Z"  fill-rule="nonzero" opacity="1" stroke="none"/>
<path d="M244.625 69.9062C207.902 72.7059 174.563 87.9132 148.812 111.438L138.688 91.625L115.594 140.969L123.344 140.969C108.711 162.916 99.3336 188.605 96.9688 216.219L131.656 215.438L131.656 246.562L96.8125 242.094C99.3223 275.228 112.007 305.595 131.656 330.125L131.656 371.125L146.938 371.125L146.938 346.625C172.401 370.578 205.53 386.327 242.25 389.625L237.031 310.094L279.5 310.094L275.469 389.219C349.775 380.542 408.874 320.787 416.406 246.125L384.188 248.719L384.188 216.875L416.906 219.719C411.956 141.254 350.215 77.8618 272.469 70.1875L279.625 154.812L239.25 154.812L244.625 69.9062ZM239.469 75.2812L234.375 154.812L146.938 154.812L146.938 140.969L164 140.969L151.094 115.875C174.905 93.8548 205.546 79.0836 239.469 75.2812ZM277.844 75.7188C348.565 85.4015 404.421 142.838 411.594 214.344L384.188 211.969L384.188 154.812L284.5 154.812L277.844 75.7188ZM129.219 140.969L131.656 140.969L131.656 210.562L102.344 211.281C105.5 185.389 114.945 161.409 129.219 140.969ZM296.906 199.062C302.216 199.062 306.743 203.594 308.25 203.594C309.829 203.594 310.33 201.673 310.906 199.375L312.469 199.375L312.469 220.812L311.031 220.812C308.953 212.854 304.075 202.094 297.406 202.094C288.871 202.094 286.594 216.134 286.594 231.625C286.594 237.076 286.943 245.835 289.094 251.719C291.534 258.315 296.206 259.688 298 259.688C302.591 259.687 306.942 256.872 311.75 248.406L313.562 250.719C309.259 258.321 304.717 264.062 297.188 264.062C283.63 264.063 276.25 249.07 276.25 232C276.25 213.353 284.644 199.062 296.906 199.062ZM208.281 199.156L209.906 199.156L222.969 247.281C225.551 257.106 226.485 260.179 229.281 260.031L229.281 262.344L210.344 262.344L210.344 260.031C214.004 259.599 215.094 259.483 215.094 256.469C215.094 254.031 213.129 247.192 212.344 244.25L199.219 244.25C197.57 250.849 196.656 254.659 196.656 256.094C196.656 259.606 199.429 259.817 201.438 260.031L201.438 262.344L189.562 262.344L189.562 260.031C192.716 259.31 193.557 256.164 195.281 249.281L208.281 199.156ZM357.594 199.156L359.156 199.156L372.219 247.281C374.871 257.106 375.797 260.179 378.594 260.031L378.594 262.344L359.656 262.344L359.656 260.031C363.311 259.599 364.344 259.483 364.344 256.469C364.344 254.031 362.479 247.192 361.688 244.25L348.469 244.25C346.82 250.849 345.906 254.659 345.906 256.094C345.906 259.606 348.78 259.817 350.719 260.031L350.719 262.344L338.875 262.344L338.875 260.031C342.031 259.31 342.803 256.164 344.594 249.281L357.594 199.156ZM151.188 200.438L171.531 200.438L171.531 202.719C167.445 203.006 165.656 203.084 165.656 211.188L165.656 254.375C165.656 258.751 166.938 259.469 170.812 259.469C179.635 259.469 182.96 251.853 185.688 241.594L187.312 241.594L184.969 262.344L151.188 262.344L151.188 260.031C154.416 259.385 156.188 259.096 156.188 253.5L156.188 209.25C156.187 203.225 153.767 203.006 151.188 202.719L151.188 200.438ZM232.375 200.438L244.688 200.438L264.938 239.594L265 239.594L265 211.844C265 206.32 264.358 203.293 259.625 202.719L259.625 200.438L272.156 200.438L272.156 202.719C267.922 203.58 267.594 205.686 267.594 210.062L267.594 263.969L265.938 263.969L240.031 214.344L239.906 214.344L239.906 250.938C239.906 257.539 241.102 259.31 245.406 260.031L245.406 262.344L232.156 262.344L232.156 260.031C235.669 259.385 237.312 258.744 237.312 252.719L237.312 209.344C234.012 203.032 233.094 202.719 232.375 202.719L232.375 200.438ZM316.781 200.438L337.219 200.438L337.219 202.719C334.492 202.933 331.688 203.01 331.688 209.25L331.688 253.5C331.688 259.383 333.99 259.672 337.219 260.031L337.219 262.344L316.781 262.344L316.781 260.031C319.937 259.599 322.219 259.169 322.219 253.5L322.219 209.25C322.219 203.225 319.436 203.006 316.781 202.719L316.781 200.438ZM102.25 247.719L131.656 251.438L131.656 322.156C115.879 300.858 105.409 275.329 102.25 247.719ZM410.875 251.438C401.407 319.217 348.055 373.226 280.562 383.625L284.375 310.094L384.188 310.094L384.188 253.594L410.875 251.438ZM146.938 310.094L232.156 310.094L237.031 384.188C202.106 379.742 170.679 363.614 146.938 339.875L146.938 310.094Z"  fill-rule="nonzero" opacity="1" stroke="none"/>
<path d="M349.415 240.746L354.867 218.514L360.747 240.746L349.415 240.746L349.415 240.746"  fill-rule="evenodd" opacity="1" stroke="none"/>
<path d="M200.088 240.746L205.612 218.514L211.492 240.746L200.088 240.746L200.088 240.746"  fill-rule="evenodd" opacity="1" stroke="none"/>
</g>
</g>
</svg>
