<svg  viewBox="0 0 554 255" fill="currentColor" xmlns="http://www.w3.org/2000/svg">
<path d="M279.468 0C140.605 0.0268095 15.5757 47.3902 1.28633 110.866C-8.21309 153.091 35.8167 196.406 103.108 221.75C181.82 150.24 270.845 74.5839 386.982 22.6182C281.113 90.7411 203.017 165.593 139.399 234.038C160.793 239.632 184.17 244.752 208.933 247.594C244.688 192.394 284.491 123.708 402.058 23.7353C316.653 126.442 276.814 187.434 242.32 251.902C369.44 263.278 517.356 247.344 552.592 135.727C567.811 68.0066 457.902 7.68538 307.386 0.822157C298.087 0.335658 288.779 0.0615347 279.468 0ZM274.437 10.3306C330.79 9.67821 374.972 15.9159 374.972 15.9159C265.715 55.0219 188.737 95.0484 87.3352 152.474C88.3182 153.457 7.31843 140.705 65.5482 73.726C109.497 23.1634 201.989 11.1706 274.437 10.3306ZM417.143 29.0436C417.143 29.0436 491.092 38.409 509.304 103.887C529.34 175.986 339.423 204.896 326.661 194.083C361.799 109.15 372.175 108.426 417.143 29.0436Z"/>
</svg>