<?xml version="1.0" encoding="UTF-8" standalone="no"?>
<!DOCTYPE svg PUBLIC "-//W3C//DTD SVG 1.1//EN" "http://www.w3.org/Graphics/SVG/1.1/DTD/svg11.dtd">
<!-- Created with Vectornator (http://vectornator.io/) -->
<svg  stroke-miterlimit="10" style="fill-rule:nonzero;clip-rule:evenodd;stroke-linecap:round;stroke-linejoin:round;" version="1.1" viewBox="0 0 2500 2500" fill="currentColor" xml:space="preserve" xmlns="http://www.w3.org/2000/svg" xmlns:xlink="http://www.w3.org/1999/xlink">
<defs/>
<g id="Ohne-Titel">
<path d="M1833.24 1320.81L1638.58 1320.81L1638.58 1700.94L1834.89 1700.94L1834.89 1529.43L2066.61 1700.94L2262.81 1700.94L2262.81 1320.81L2066.46 1320.81L2066.46 1493.84C2066.46 1493.84 1833.24 1320.81 1833.24 1320.81ZM1251.8 319.808C562.426 319.808 3.61543 878.64 3.61543 1567.98C3.61543 1612.92 5.99513 1657.24 10.6127 1700.95L141.328 1700.95C136.108 1656.82 133.498 1612.42 133.512 1567.98C133.512 950.383 634.195 449.704 1251.81 449.704C1869.42 449.704 2370.11 950.383 2370.11 1567.98C2370.11 1612.99 2367.45 1657.35 2362.3 1700.95L2493 1700.95C2497.67 1656.78 2500.01 1612.4 2500 1567.98C2499.97 878.64 1941.15 319.808 1251.8 319.808ZM1356.55 1320.81L1147.83 1320.81L900.449 1700.94L1103.06 1700.94L1130.56 1658.41L1373.84 1658.41L1401.35 1700.94L1603.95 1700.94L1356.55 1320.81ZM1309.12 1557.37L1195.28 1557.37L1252.2 1469.42L1309.12 1557.37ZM421.388 1320.81L237.236 1320.81L237.236 1700.94L433.586 1700.94L433.586 1550.62L550.874 1667.89L668.136 1550.62L668.136 1700.94L864.48 1700.94L864.48 1320.81L680.324 1320.81L550.869 1450.28C550.869 1450.28 421.388 1320.81 421.388 1320.81Z" fill-rule="nonzero" opacity="1" stroke="none"/>
</g>
</svg>
