<?xml version="1.0" encoding="UTF-8" standalone="no"?>
<!DOCTYPE svg PUBLIC "-//W3C//DTD SVG 1.1//EN" "http://www.w3.org/Graphics/SVG/1.1/DTD/svg11.dtd">
<!-- Created with Vectornator (http://vectornator.io/) -->
<svg  stroke-miterlimit="10" fill="currentColor" style="fill-rule:nonzero;clip-rule:evenodd;stroke-linecap:round;stroke-linejoin:round;" version="1.1" viewBox="0 0 512 512"  xml:space="preserve" xmlns="http://www.w3.org/2000/svg" xmlns:xlink="http://www.w3.org/1999/xlink">
<defs/>
<g id="Ohne-Titel">
<g opacity="1">
<path d="M84.1894 235.226L84.1894 241.968C84.1894 337.115 161.588 414.868 256.732 414.868C335.905 414.868 402.648 361.615 422.886 289.19L145.962 292.386L212.711 240.905L84.1894 235.226ZM90.5831 195.818C110.819 122.681 177.565 69.4258 256.735 69.4258C351.885 69.4258 429.277 146.824 429.277 241.968L429.277 250.491L300.759 244.812L369.279 192.623C369.279 192.623 90.5831 195.818 90.5831 195.818ZM61.8246 234.16L1.46945 231.676L1.46945 196.527L67.1493 195.818C88.0965 110.612 165.137 47.061 256.735 47.061C364.309 47.061 451.645 134.397 451.645 241.968C451.645 245.169 451.645 248.005 451.293 251.2L512 253.684L512 288.482L446.323 289.19C425.019 374.04 348.335 437.239 256.735 437.239C148.806 437.239 61.4702 349.9 61.4702 241.968C61.4702 239.485 61.4702 237.001 61.8246 234.16Z"  fill-rule="evenodd" opacity="1" stroke="none"/>
</g>
</g>
</svg>
