<?xml version="1.0" encoding="UTF-8"?>
<svg xmlns="http://www.w3.org/2000/svg" xmlns:xlink="http://www.w3.org/1999/xlink" fill="currentColor" viewBox="0 0 112.5 112.5" version="1.1">
<g id="surface12790">
<path style="fill:none;stroke-width:2;stroke-linecap:round;stroke-linejoin:round;stroke:currentColor;stroke-opacity:1;stroke-miterlimit:10;" d="M 25 45.999581 C 43.999372 37.419782 43.999372 18.976702 43.999372 12.45466 C 43.999372 7.796805 43.999372 6.863839 43.999372 6.863839 C 43.999372 6.863839 35.449219 4.999651 25 4.999651 C 14.550781 4.999651 6.000628 6.863839 6.000628 6.863839 C 6.000628 6.863839 6.000628 7.796805 6.000628 12.45466 C 6.000628 18.976702 6.000628 37.419782 25 45.999581 Z M 25 45.999581 " transform="matrix(2.24,0,0,2.24,-0.000000000000007105,-0.000000000000007105)"/>
<path style=" stroke:none;fill-rule:evenodd;fill-opacity:1;" d="M 55.871094 62.363281 C 55.871094 62.363281 56.292969 64.855469 56.222656 65.125 C 56 65.988281 53.378906 79.839844 53.207031 81.507812 C 53.109375 82.453125 53.140625 82.679688 53.394531 83.519531 C 54.101562 85.894531 57.558594 93.175781 57.558594 93.175781 L 57.515625 95.078125 C 56.679688 93.8125 52.121094 85.425781 50.328125 80.785156 C 50.117188 80.230469 54.925781 64.558594 55.871094 62.363281 Z M 55.871094 62.363281 "/>
<path style=" stroke:none;fill-rule:evenodd;fill-opacity:1;" d="M 49.222656 49.476562 C 49.222656 49.476562 51.042969 53.902344 51.109375 54.402344 C 51.175781 54.886719 51.164062 55.015625 50.992188 55.476562 C 50.578125 56.585938 46.015625 65.296875 45.523438 66.21875 C 45.28125 66.671875 45.054688 66.972656 44.597656 67.433594 C 43.550781 68.496094 41.554688 70.507812 40.320312 71.628906 C 39.871094 72.035156 39.75 72.386719 39.660156 72.914062 C 39.511719 73.761719 39.367188 75.210938 39.324219 75.960938 C 39.289062 76.621094 39.398438 76.925781 39.761719 77.578125 C 41.941406 81.464844 49.210938 90.414062 51.285156 92.292969 C 51.433594 92.429688 51.542969 92.519531 51.863281 92.730469 C 52.167969 92.933594 53.160156 93.582031 53.160156 93.582031 C 53.199219 93.605469 53.234375 93.644531 53.257812 93.6875 L 53.617188 94.320312 C 53.617188 94.320312 53.582031 94.304688 53.523438 94.273438 L 53.367188 94.195312 C 53.242188 94.132812 53.078125 94.050781 52.886719 93.957031 L 52.425781 93.726562 C 51.71875 93.371094 50.875 92.941406 50.429688 92.703125 C 50.246094 92.605469 50.078125 92.488281 49.917969 92.359375 C 47.492188 90.339844 40.058594 81.632812 37.871094 77.996094 C 37.324219 77.085938 37.269531 76.792969 37.339844 75.933594 C 37.476562 74.335938 37.691406 72.324219 37.875 71.441406 C 37.988281 70.910156 38.105469 70.597656 38.511719 70.128906 C 39.882812 68.554688 41.550781 66.472656 43.175781 64.335938 L 43.746094 63.582031 C 46.214844 60.304688 48.484375 57.023438 49.332031 55.351562 C 49.527344 54.972656 49.542969 54.839844 49.546875 54.480469 C 49.558594 53.441406 49.226562 51.414062 49.140625 50.898438 C 49.125 50.820312 49.121094 50.738281 49.128906 50.65625 Z M 49.222656 49.476562 "/>
<path style=" stroke:none;fill-rule:evenodd;fill-opacity:1;" d="M 69.515625 47.523438 L 70.144531 47.792969 C 70.332031 47.875 70.5 47.996094 70.640625 48.140625 C 74.496094 52.164062 77.578125 56.339844 78.195312 57.441406 C 78.3125 57.652344 78.394531 57.863281 78.421875 58.105469 C 79.113281 63.976562 78.519531 70.195312 77.105469 75.609375 C 76.976562 76.097656 76.835938 76.347656 76.363281 76.699219 C 74.855469 77.835938 72.597656 79.648438 70.355469 81.496094 L 69.648438 82.082031 C 66.945312 84.320312 64.382812 86.511719 63.292969 87.519531 C 63.019531 87.773438 60.6875 91.773438 60.6875 91.773438 C 60.175781 90.667969 59.070312 87.957031 58.691406 86.863281 C 58.570312 86.507812 58.546875 86.320312 58.675781 85.84375 C 59.296875 83.574219 62.226562 76.980469 62.792969 75.789062 L 62.792969 76.277344 C 62.792969 76.347656 62.78125 76.417969 62.761719 76.484375 C 62.503906 77.265625 60.546875 85.351562 60.609375 85.847656 C 60.75 86.898438 61.378906 88.828125 61.378906 88.828125 C 61.378906 88.828125 61.828125 86.875 62.171875 86.351562 C 62.34375 86.09375 72.785156 76.707031 74.300781 75.480469 C 74.695312 75.160156 74.84375 74.949219 74.929688 74.34375 C 75.363281 71.359375 76.191406 66.730469 75.929688 62.828125 C 75.878906 62.09375 75.839844 61.070312 75.425781 60.460938 C 74.476562 59.054688 73.335938 57.722656 71.613281 56.011719 C 71.367188 55.769531 71.199219 55.457031 71.136719 55.113281 C 70.636719 52.433594 69.515625 47.523438 69.515625 47.523438 Z M 69.515625 47.523438 "/>
<path style=" stroke:none;fill-rule:evenodd;fill-opacity:1;" d="M 36.921875 53.734375 C 37.160156 53.65625 37.417969 53.644531 37.660156 53.707031 C 38.761719 53.96875 41.085938 54.542969 42.84375 54.992188 C 43.089844 55.054688 43.398438 55.285156 43.53125 55.503906 L 43.914062 56.144531 C 44.046875 56.367188 44.054688 56.640625 43.9375 56.875 C 43.617188 57.492188 41.078125 62.753906 40.699219 63.359375 C 40.449219 63.757812 40.308594 63.9375 39.867188 64.09375 C 38.136719 64.703125 36.46875 64.6875 35.191406 65.101562 C 34.929688 65.1875 34.84375 65.34375 34.894531 65.632812 C 34.988281 66.164062 35.28125 67.953125 35.394531 68.476562 C 35.4375 68.667969 35.589844 68.824219 35.875 68.769531 C 36.628906 68.625 38.058594 68.316406 38.058594 68.316406 C 38.058594 68.316406 37.464844 68.863281 37.109375 69.1875 C 37.046875 69.246094 36.96875 69.292969 36.886719 69.320312 C 36.339844 69.503906 35.003906 69.875 34.585938 69.96875 C 34.261719 70.039062 34.050781 69.910156 33.96875 69.542969 C 33.96875 69.542969 33.402344 67.113281 33.195312 66.289062 C 33.160156 66.164062 33.128906 66.054688 33.089844 65.929688 C 32.933594 65.453125 32.566406 64.511719 32.355469 64.019531 C 32.328125 63.964844 32.320312 63.902344 32.320312 63.839844 C 32.324219 63.277344 32.429688 62.023438 32.429688 62.023438 C 32.429688 62.023438 33.660156 63.175781 34.253906 63.59375 C 34.386719 63.6875 34.46875 63.707031 34.632812 63.664062 C 35.449219 63.453125 37.328125 62.832031 38.363281 62.445312 C 38.597656 62.359375 38.804688 62.210938 38.964844 62.015625 C 40.035156 60.726562 41.371094 58.71875 42.144531 57.207031 C 42.25 56.996094 42.269531 56.757812 42.203125 56.53125 L 42.039062 55.984375 C 41.988281 55.824219 41.820312 55.640625 41.664062 55.582031 C 39.84375 54.890625 38.410156 54.375 36.726562 53.800781 Z M 36.921875 53.734375 "/>
<path style=" stroke:none;fill-rule:evenodd;fill-opacity:1;" d="M 72.894531 38.105469 C 73.296875 37.957031 73.734375 37.96875 74.128906 38.132812 C 77.175781 39.414062 82.304688 42.429688 85.152344 44.550781 C 85.429688 44.757812 85.539062 44.898438 85.609375 45.230469 C 86.28125 48.277344 86.535156 52.984375 86.113281 56.949219 C 86.082031 57.234375 86.023438 57.40625 85.878906 57.710938 C 84.070312 61.40625 82.53125 64.976562 80.394531 67.660156 C 80.394531 67.660156 80.28125 66.433594 80.289062 65.558594 C 80.289062 65.460938 80.210938 63.78125 80.289062 63.722656 C 80.6875 63.414062 81.160156 63.757812 81.472656 63.488281 C 81.621094 63.359375 81.703125 63.261719 81.78125 63.132812 C 82.652344 61.726562 84.210938 58.773438 84.839844 57 C 84.992188 56.566406 85.054688 56.109375 85.015625 55.648438 C 84.816406 53.175781 84.429688 49.746094 83.851562 47.511719 C 83.75 47.128906 83.5 46.808594 83.148438 46.628906 C 82.648438 46.371094 81.671875 45.925781 79.445312 45.03125 C 79.136719 44.90625 78.847656 44.734375 78.59375 44.523438 C 77.132812 43.292969 74.851562 41.453125 73.433594 40.394531 C 73.015625 40.085938 72.488281 39.96875 71.980469 40.085938 C 70.945312 40.320312 69.628906 40.648438 68.886719 40.847656 C 68.636719 40.914062 68.535156 40.921875 68.273438 40.894531 C 68.140625 40.878906 67.964844 40.859375 67.78125 40.84375 L 67.503906 40.820312 C 67.175781 40.792969 66.875 40.769531 66.757812 40.757812 L 66.699219 40.753906 C 69.113281 39.617188 71.441406 38.636719 72.894531 38.105469 Z M 72.894531 38.105469 "/>
<path style=" stroke:none;fill-rule:evenodd;fill-opacity:1;" d="M 40.136719 57.46875 C 39.382812 58.714844 38.480469 60.035156 37.796875 60.859375 C 37.707031 60.96875 37.585938 61.050781 37.453125 61.101562 C 36.707031 61.382812 35.460938 61.804688 34.546875 62.082031 Z M 40.136719 57.46875 "/>
<path style=" stroke:none;fill-rule:evenodd;fill-opacity:1;" d="M 30.9375 55.902344 L 30.675781 60.101562 L 28.710938 57.765625 C 28.988281 57.164062 30.9375 55.902344 30.9375 55.902344 Z M 30.9375 55.902344 "/>
<path style=" stroke:none;fill-rule:evenodd;fill-opacity:1;" d="M 38.839844 39.03125 L 38.425781 39.539062 C 38.40625 39.5625 38.382812 39.585938 38.359375 39.609375 C 37.992188 39.875 36.457031 41.050781 36.042969 41.382812 C 35.925781 41.476562 35.878906 41.558594 35.851562 41.707031 C 35.757812 42.226562 35.601562 43.214844 35.558594 43.765625 C 35.542969 43.925781 35.476562 44.003906 35.3125 44.070312 C 34.597656 44.359375 33.753906 44.667969 33.074219 44.941406 C 32.929688 45 32.886719 45.023438 32.800781 45.085938 C 32.734375 45.140625 31.824219 45.949219 31.824219 45.949219 C 31.824219 45.949219 33.796875 45.464844 34.519531 45.300781 C 34.691406 45.261719 34.765625 45.269531 34.925781 45.347656 C 35.074219 45.414062 35.324219 45.515625 35.453125 45.5625 C 35.65625 45.636719 35.761719 45.632812 35.984375 45.585938 C 36.800781 45.402344 38.578125 45.621094 39.308594 45.429688 C 39.6875 45.332031 39.898438 45.226562 40.21875 45.003906 C 40.566406 44.761719 41.453125 44.097656 41.453125 44.097656 C 41.453125 44.097656 41.433594 44.214844 41.421875 44.277344 C 41.414062 44.335938 41.394531 44.367188 41.355469 44.410156 C 41.179688 44.628906 40.863281 44.980469 40.707031 45.140625 C 40.347656 45.511719 40.132812 45.644531 39.679688 45.832031 C 37.609375 46.699219 33.660156 47.496094 31.003906 48.417969 C 30.828125 48.476562 30.753906 48.527344 30.625 48.660156 C 30.484375 48.804688 30.296875 49.007812 30.296875 49.007812 C 30.296875 49.007812 32.464844 49.164062 33.125 49.242188 C 33.339844 49.265625 33.492188 49.335938 33.65625 49.476562 C 34.199219 49.945312 36 51.796875 36.535156 52.441406 C 36.535156 52.441406 31.421875 53.292969 29.054688 53.882812 C 28.757812 53.953125 28.613281 54.140625 28.546875 54.375 C 28.351562 55.066406 27.890625 57.28125 27.890625 57.28125 C 27.890625 57.28125 27.726562 57.226562 27.496094 57.09375 C 27.339844 57.003906 27.257812 56.929688 27.085938 56.746094 C 26.527344 56.152344 25.605469 55.019531 25.160156 54.359375 C 25.03125 54.164062 24.976562 53.917969 25.140625 53.71875 C 25.617188 53.128906 26.585938 52.046875 27.117188 51.492188 C 27.171875 51.433594 27.246094 51.328125 27.324219 51.175781 C 27.503906 50.820312 27.738281 49.917969 27.820312 49.59375 L 27.847656 49.488281 L 27.851562 49.476562 C 27.851562 49.476562 27.847656 49.476562 27.839844 49.484375 L 27.742188 49.542969 C 27.609375 49.628906 27.398438 49.761719 27.304688 49.820312 C 27.167969 49.90625 27.132812 49.945312 27.074219 50.0625 C 26.988281 50.246094 26.835938 50.53125 26.722656 50.730469 C 26.683594 50.792969 26.585938 50.894531 26.53125 50.9375 C 25.851562 51.457031 25.101562 52.015625 24.566406 52.390625 C 24.53125 52.414062 24.484375 52.40625 24.453125 52.375 C 24.382812 52.308594 24.097656 51.984375 24.046875 51.90625 C 24.007812 51.84375 23.984375 51.785156 23.984375 51.707031 C 23.984375 51.570312 23.996094 51.332031 24.011719 51.15625 C 24.027344 50.945312 24.085938 50.847656 24.34375 50.582031 C 24.625 50.285156 24.9375 49.972656 25.265625 49.652344 C 26.066406 48.980469 28.089844 47.335938 31.703125 44.753906 C 31.769531 44.707031 31.832031 44.648438 31.882812 44.582031 C 32.261719 44.066406 33.339844 42.667969 33.605469 42.335938 C 33.640625 42.289062 33.683594 42.246094 33.730469 42.207031 C 34.15625 41.871094 34.367188 41.726562 34.800781 41.453125 C 35.800781 40.820312 37.75 39.664062 38.839844 39.03125 Z M 38.839844 39.03125 "/>
<path style=" stroke:none;fill-rule:evenodd;fill-opacity:1;" d="M 60.859375 37.886719 C 61.011719 37.859375 61.167969 37.878906 61.304688 37.945312 L 62.363281 38.453125 C 62.464844 38.5 62.539062 38.59375 62.566406 38.710938 C 62.710938 39.3125 62.886719 40.113281 63.003906 40.792969 C 63.050781 41.078125 63 41.367188 62.855469 41.613281 C 62.417969 42.375 61.523438 43.742188 61.023438 44.476562 C 60.910156 44.640625 60.898438 44.839844 60.933594 45.035156 C 61.160156 46.292969 62.109375 50.6875 62.109375 50.6875 L 61.511719 50.144531 C 61.390625 50.035156 61.3125 49.917969 61.261719 49.769531 C 60.835938 48.523438 59.425781 46.421875 59.058594 45.15625 C 59 44.949219 59.046875 44.726562 59.183594 44.558594 C 59.804688 43.804688 60.714844 42.59375 61.242188 41.828125 C 61.390625 41.613281 61.4375 41.375 61.351562 41.195312 C 61.230469 40.945312 61.023438 40.566406 60.828125 40.222656 C 60.773438 40.125 60.6875 40.054688 60.582031 40.019531 L 59.863281 39.789062 C 59.738281 39.75 59.605469 39.75 59.480469 39.796875 C 57.921875 40.363281 56.4375 40.683594 55.15625 41.21875 C 54.96875 41.296875 54.890625 41.304688 54.664062 41.265625 C 54.289062 41.210938 53.207031 41.019531 52.679688 40.917969 C 52.582031 40.898438 52.535156 40.792969 52.585938 40.707031 L 53.214844 39.613281 C 53.296875 39.464844 53.441406 39.359375 53.605469 39.324219 C 55.636719 38.867188 58.3125 38.335938 60.859375 37.886719 Z M 60.859375 37.886719 "/>
<path style=" stroke:none;fill-rule:evenodd;fill-opacity:1;" d="M 39.519531 42.375 C 39.660156 42.363281 39.792969 42.441406 39.847656 42.566406 C 40.03125 42.980469 39.980469 43.441406 39.800781 43.835938 C 39.734375 44 39.519531 44.15625 39.34375 44.191406 L 37.875 44.503906 C 37.785156 44.523438 37.703125 44.453125 37.710938 44.367188 L 37.847656 42.707031 C 37.859375 42.59375 37.949219 42.503906 38.066406 42.496094 Z M 39.519531 42.375 "/>
<path style=" stroke:none;fill-rule:evenodd;fill-opacity:1;" d="M 49.949219 35.269531 C 50.066406 35.269531 50.140625 35.394531 50.082031 35.496094 L 47.617188 39.742188 C 47.480469 39.992188 47.25 40.179688 46.980469 40.257812 L 43 41.195312 C 42.464844 41.355469 42.007812 41.445312 41.453125 41.488281 C 40.425781 41.5625 37.710938 41.621094 37.710938 41.621094 L 40.90625 38.320312 C 41.023438 38.175781 41.179688 38.03125 41.34375 37.945312 C 42.8125 37.171875 45.425781 36.011719 47.257812 35.394531 C 47.429688 35.339844 47.664062 35.300781 47.84375 35.300781 Z M 49.949219 35.269531 "/>
<path style=" stroke:none;fill-rule:evenodd;fill-opacity:1;" d="M 47.480469 30.339844 C 50.308594 29.125 58.128906 27.984375 65.273438 29.492188 C 65.648438 29.523438 68.445312 30.605469 68.789062 30.753906 C 70.949219 31.664062 73.140625 33.429688 77.402344 35.867188 C 77.589844 35.976562 77.765625 36.101562 77.925781 36.246094 C 79.054688 37.238281 81.914062 40.167969 81.914062 40.167969 L 81.023438 39.992188 C 80.898438 39.964844 80.78125 39.917969 80.675781 39.847656 C 78.871094 38.632812 76.238281 37.054688 74.03125 35.941406 C 73.769531 35.8125 73.488281 35.726562 73.195312 35.695312 C 72.121094 35.582031 70.667969 35.480469 69.71875 35.445312 C 69.25 35.421875 68.933594 35.34375 68.472656 35.113281 C 67.597656 34.667969 66.273438 34.257812 65.21875 33.851562 C 64.765625 33.679688 63.617188 33.265625 63.171875 33.273438 C 61.359375 33.300781 53.460938 33.378906 53.460938 33.378906 C 56.371094 32.808594 63.925781 32.09375 66.84375 31.941406 L 65.65625 31.542969 C 65.429688 31.46875 65.1875 31.425781 64.945312 31.421875 C 64.3125 31.40625 62.902344 31.378906 61.074219 31.375 L 60.449219 31.375 C 57.679688 31.378906 54.113281 31.449219 50.824219 31.695312 C 50.535156 31.71875 50.257812 31.785156 49.992188 31.90625 C 48.664062 32.488281 45.425781 34.246094 42.175781 36.054688 L 41.457031 36.453125 C 40.617188 36.921875 39.785156 37.386719 38.996094 37.832031 C 38.996094 37.832031 39.402344 37.308594 39.480469 37.207031 C 39.550781 37.121094 39.570312 37.101562 39.664062 37.042969 C 39.792969 36.957031 40.238281 36.664062 40.691406 36.363281 L 41.023438 36.140625 C 41.292969 35.964844 41.535156 35.800781 41.671875 35.707031 C 41.738281 35.664062 41.78125 35.628906 41.867188 35.566406 C 42.84375 34.828125 44.386719 33.527344 45.308594 32.71875 C 45.515625 32.539062 45.695312 32.324219 45.839844 32.089844 C 46.136719 31.609375 46.460938 31.085938 46.660156 30.796875 C 46.824219 30.546875 47.117188 30.371094 47.480469 30.339844 Z M 47.480469 30.339844 "/>
<path style=" stroke:none;fill-rule:evenodd;fill-opacity:1;" d="M 84.21875 18.410156 C 86.996094 18.679688 89.769531 18.992188 92.539062 19.339844 L 92.539062 20.347656 C 91.339844 20.195312 90.140625 20.050781 88.941406 19.914062 L 88.941406 25.140625 C 88.578125 25.097656 88.210938 25.058594 87.847656 25.019531 L 87.847656 19.789062 C 86.640625 19.660156 85.425781 19.53125 84.21875 19.414062 Z M 84.21875 18.410156 "/>
<path style=" stroke:none;fill-rule:evenodd;fill-opacity:1;" d="M 38.089844 17.589844 L 38.089844 18.59375 C 35.804688 18.734375 33.523438 18.902344 31.242188 19.097656 L 31.242188 20.628906 C 33.273438 20.457031 35.300781 20.304688 37.335938 20.175781 L 37.335938 21.179688 C 35.300781 21.3125 33.273438 21.464844 31.242188 21.636719 L 31.242188 23.320312 C 33.523438 23.125 35.808594 22.957031 38.089844 22.816406 L 38.089844 23.820312 C 35.449219 23.984375 32.808594 24.183594 30.171875 24.414062 L 30.171875 18.183594 C 32.808594 17.949219 35.449219 17.753906 38.089844 17.589844 Z M 38.089844 17.589844 "/>
<path style=" stroke:none;fill-rule:evenodd;fill-opacity:1;" d="M 62.992188 17.121094 C 65.640625 17.183594 68.28125 17.285156 70.925781 17.421875 L 70.925781 18.425781 C 68.640625 18.308594 66.351562 18.214844 64.066406 18.152344 L 64.066406 19.6875 C 66.101562 19.742188 68.132812 19.820312 70.164062 19.921875 L 70.164062 20.929688 C 68.132812 20.828125 66.101562 20.75 64.066406 20.695312 L 64.066406 22.378906 C 66.351562 22.441406 68.640625 22.535156 70.925781 22.652344 L 70.925781 23.65625 C 68.28125 23.519531 65.640625 23.417969 62.992188 23.355469 Z M 62.992188 17.121094 "/>
<path style=" stroke:none;fill-rule:evenodd;fill-opacity:1;" d="M 49.234375 17.117188 L 49.234375 21.625 C 49.234375 23.050781 48.484375 23.367188 46.976562 23.414062 C 45.664062 23.453125 44.351562 23.503906 43.039062 23.558594 C 41.636719 23.621094 40.78125 23.355469 40.78125 21.945312 L 40.78125 17.4375 L 41.855469 17.378906 L 41.855469 22.078125 C 41.855469 22.367188 42.097656 22.597656 42.421875 22.582031 C 44.144531 22.503906 45.867188 22.4375 47.585938 22.390625 C 47.914062 22.378906 48.132812 22.128906 48.132812 21.84375 L 48.132812 17.144531 C 48.5 17.132812 48.863281 17.125 49.234375 17.117188 Z M 49.234375 17.117188 "/>
<path style=" stroke:none;fill-rule:evenodd;fill-opacity:1;" d="M 79.980469 18.027344 C 78.609375 17.914062 77.238281 17.808594 75.867188 17.714844 C 74.308594 17.609375 73.617188 17.898438 73.617188 19.296875 L 73.617188 22.078125 C 73.617188 23.558594 74.378906 23.847656 75.867188 23.949219 C 77.238281 24.042969 78.609375 24.148438 79.980469 24.257812 C 81.457031 24.378906 82.230469 24.128906 82.230469 22.730469 L 82.230469 19.945312 C 82.230469 18.519531 81.335938 18.140625 79.980469 18.027344 Z M 81.15625 22.785156 C 81.15625 23.070312 80.871094 23.332031 80.589844 23.308594 C 78.8125 23.15625 77.035156 23.023438 75.257812 22.902344 C 74.929688 22.882812 74.6875 22.582031 74.6875 22.296875 L 74.6875 19.214844 C 74.6875 18.886719 74.929688 18.660156 75.257812 18.679688 C 77.035156 18.796875 78.8125 18.933594 80.589844 19.082031 C 80.871094 19.105469 81.15625 19.375 81.15625 19.699219 Z M 81.15625 22.785156 "/>
<path style=" stroke:none;fill-rule:evenodd;fill-opacity:1;" d="M 53.976562 17.042969 C 55.945312 17.03125 57.917969 17.039062 59.886719 17.0625 L 59.886719 18.066406 C 57.78125 18.039062 55.675781 18.035156 53.566406 18.050781 C 53.28125 18.054688 52.996094 18.304688 52.996094 18.585938 L 52.996094 21.710938 C 52.996094 22 53.28125 22.28125 53.566406 22.277344 C 55.457031 22.261719 57.347656 22.261719 59.238281 22.285156 L 59.238281 20.601562 C 58.140625 20.589844 57.042969 20.582031 55.945312 20.582031 L 55.945312 19.578125 C 57.398438 19.578125 58.855469 19.589844 60.308594 19.609375 L 60.308594 23.304688 C 58.265625 23.273438 56.222656 23.265625 54.179688 23.277344 C 52.683594 23.289062 51.921875 23.03125 51.921875 21.574219 L 51.921875 18.859375 C 51.921875 17.5 52.601562 17.054688 53.976562 17.042969 Z M 53.976562 17.042969 "/>
<path style=" stroke:none;fill-rule:nonzero;fill-opacity:1;" d="M 25.769531 18.609375 C 23.660156 18.832031 21.554688 19.074219 19.453125 19.339844 L 19.453125 25.574219 C 19.816406 25.527344 20.183594 25.480469 20.546875 25.4375 L 20.546875 23.507812 C 22.285156 23.296875 24.027344 23.097656 25.769531 22.914062 C 27.027344 22.78125 27.730469 22.257812 27.730469 20.949219 L 27.730469 20.246094 C 27.730469 18.96875 27.027344 18.480469 25.769531 18.609375 Z M 26.660156 21.316406 C 26.660156 21.585938 26.375 21.847656 26.09375 21.878906 C 24.242188 22.070312 22.394531 22.277344 20.546875 22.503906 L 20.546875 20.210938 C 22.394531 19.984375 24.242188 19.773438 26.089844 19.582031 C 26.375 19.554688 26.660156 19.769531 26.660156 20.054688 Z M 26.660156 21.316406 "/>
</g>
</svg>
