<?xml version="1.0" encoding="UTF-8"?>
<svg xmlns="http://www.w3.org/2000/svg" xmlns:xlink="http://www.w3.org/1999/xlink"  viewBox="0 0 75 75" version="1.1" fill="currentColor">
<g id="surface15769">
<path style="fill:none;stroke-width:2;stroke-linecap:round;stroke-linejoin:round;stroke:currentColor;stroke-opacity:1;stroke-miterlimit:4;" d="M 44.789062 21.119792 C 39.341146 27.328125 35.231771 34.591146 32.71875 42.460938 C 27.768229 44.520833 22.197917 44.513021 17.25 42.440104 C 16.184896 39.096354 14.822917 35.851562 13.179688 32.75 C 11 28.575521 8.320312 24.684896 5.200521 21.158854 C 5.960938 15.815104 8.859375 11.010417 13.229167 7.841146 C 17.104167 8.619792 21.046875 9.007812 25 9 C 28.953125 9.007812 32.895833 8.619792 36.770833 7.841146 C 41.130208 11 44.023438 15.789062 44.789062 21.119792 Z M 44.789062 21.119792 " transform="matrix(1.5,0,0,1.5,0,0)"/>
<path style="fill:none;stroke-width:2;stroke-linecap:round;stroke-linejoin:round;stroke:currentColor;stroke-opacity:1;stroke-miterlimit:4;" d="M 32.71875 42.460938 C 32.210938 44.03125 31.799479 45.580729 31.460938 47.109375 C 27.223958 48.299479 22.742188 48.296875 18.510417 47.098958 C 18.169271 45.570312 17.75 44.010417 17.25 42.440104 C 22.197917 44.513021 27.768229 44.520833 32.71875 42.460938 Z M 32.71875 42.460938 " transform="matrix(1.5,0,0,1.5,0,0)"/>
<path style="fill:none;stroke-width:2;stroke-linecap:round;stroke-linejoin:round;stroke:currentColor;stroke-opacity:1;stroke-miterlimit:4;" d="M 45 24 C 45.002604 32.065104 40.158854 39.34375 32.71875 42.460938 C 35.231771 34.591146 39.341146 27.328125 44.789062 21.119792 C 44.929688 22.072917 45 23.036458 45 24 Z M 45 24 " transform="matrix(1.5,0,0,1.5,0,0)"/>
<path style="fill:none;stroke-width:2;stroke-linecap:round;stroke-linejoin:round;stroke:currentColor;stroke-opacity:1;stroke-miterlimit:4;" d="M 17.25 42.440104 C 9.828125 39.320312 5 32.052083 5 24 C 5 23.049479 5.067708 22.101562 5.200521 21.158854 C 8.320312 24.684896 11 28.575521 13.179688 32.75 C 14.822917 35.851562 16.184896 39.096354 17.25 42.440104 Z M 17.25 42.440104 " transform="matrix(1.5,0,0,1.5,0,0)"/>
<path style="fill:none;stroke-width:2;stroke-linecap:round;stroke-linejoin:round;stroke:currentColor;stroke-opacity:1;stroke-miterlimit:4;" d="M 13.229167 7.841146 C 8.859375 11.010417 5.960938 15.815104 5.200521 21.158854 C 4.140625 19.960938 3.018229 18.820312 1.841146 17.739583 C 2.976562 13.492188 5.268229 9.643229 8.460938 6.619792 C 10.028646 7.106771 11.619792 7.513021 13.229167 7.841146 Z M 13.229167 7.841146 " transform="matrix(1.5,0,0,1.5,0,0)"/>
<path style="fill:none;stroke-width:2;stroke-linecap:round;stroke-linejoin:round;stroke:currentColor;stroke-opacity:1;stroke-miterlimit:4;" d="M 36.770833 7.841146 C 32.895833 8.619792 28.953125 9.007812 25 9 C 21.046875 9.007812 17.104167 8.619792 13.229167 7.841146 C 20.242188 2.71875 29.757812 2.71875 36.770833 7.841146 Z M 36.770833 7.841146 " transform="matrix(1.5,0,0,1.5,0,0)"/>
<path style="fill:none;stroke-width:2;stroke-linecap:round;stroke-linejoin:round;stroke:currentColor;stroke-opacity:1;stroke-miterlimit:4;" d="M 48.158854 17.710938 C 47.010417 18.760417 45.885417 19.895833 44.789062 21.119792 C 44.023438 15.789062 41.130208 11 36.770833 7.841146 C 38.380208 7.513021 39.971354 7.106771 41.539062 6.619792 C 44.723958 9.638021 47.013021 13.476562 48.158854 17.710938 Z M 48.158854 17.710938 " transform="matrix(1.5,0,0,1.5,0,0)"/>
<path style="fill:none;stroke-width:2;stroke-linecap:round;stroke-linejoin:round;stroke:currentColor;stroke-opacity:1;stroke-miterlimit:4;" d="M 36.789062 32.75 C 35.145833 35.859375 33.783854 39.109375 32.71875 42.460938 C 27.768229 44.520833 22.197917 44.513021 17.25 42.440104 C 16.184896 39.096354 14.822917 35.851562 13.179688 32.75 C 11 28.575521 8.320312 24.684896 5.200521 21.158854 C 5.960938 15.815104 8.859375 11.010417 13.229167 7.841146 C 17.104167 8.619792 21.046875 9.007812 25 9 C 28.953125 9.007812 32.895833 8.619792 36.770833 7.841146 C 41.130208 11 44.023438 15.789062 44.789062 21.119792 C 41.664062 24.658854 38.976562 28.565104 36.789062 32.75 Z M 36.789062 32.75 " transform="matrix(1.5,0,0,1.5,0,0)"/>
<path style=" stroke:none;fill-rule:evenodd;fill:currentColor;fill-opacity:1;" d="M 27.125 18.824219 L 30.722656 27.457031 L 42.808594 27.457031 L 46.453125 18.40625 C 45.589844 18.296875 44.75 18.734375 44.351562 19.507812 C 44.035156 20.042969 44.03125 20.703125 44.339844 21.238281 C 43.984375 20.839844 43.457031 20.640625 42.925781 20.707031 C 42.394531 20.773438 41.929688 21.097656 41.683594 21.574219 C 41.355469 22.144531 41.382812 22.851562 41.746094 23.398438 C 42.113281 23.945312 42.757812 24.234375 43.410156 24.148438 C 42.933594 25.09375 41.988281 25.710938 40.933594 25.769531 C 39.480469 25.828125 38.53125 24.601562 37.789062 23.335938 C 38.476562 23.800781 39.398438 23.703125 39.972656 23.109375 C 40.546875 22.511719 40.609375 21.589844 40.121094 20.921875 C 39.628906 20.25 38.730469 20.03125 37.988281 20.402344 C 38.476562 19.910156 38.613281 19.175781 38.34375 18.539062 C 38.070312 17.90625 37.441406 17.5 36.75 17.511719 C 36.058594 17.527344 35.449219 17.960938 35.203125 18.605469 C 34.957031 19.25 35.125 19.980469 35.632812 20.449219 C 35.125 20.152344 34.503906 20.144531 33.992188 20.421875 C 33.476562 20.703125 33.148438 21.230469 33.121094 21.816406 C 33.066406 22.46875 33.398438 23.097656 33.96875 23.421875 C 34.542969 23.75 35.25 23.714844 35.785156 23.335938 C 35.222656 24.101562 34.449219 25.773438 32.839844 25.773438 C 31.699219 25.761719 30.652344 25.144531 30.089844 24.148438 C 30.59375 24.351562 31.164062 24.273438 31.589844 23.941406 C 32.019531 23.609375 32.242188 23.078125 32.171875 22.542969 C 32.128906 21.144531 30.207031 19.84375 29.289062 21.375 C 29.496094 20.726562 29.355469 20.015625 28.917969 19.496094 C 28.476562 18.976562 27.796875 18.722656 27.125 18.824219 Z M 27.125 18.824219 "/>
<path style="fill:none;stroke-width:0.75;stroke-linecap:butt;stroke-linejoin:miter;stroke:currentColor;stroke-opacity:1;stroke-miterlimit:7;" d="M 21.520833 17.677083 C 20.955729 18.109375 20.502604 18.669271 20.200521 19.315104 C 19.536458 18.867188 18.726562 18.692708 17.940104 18.830729 C 16.872396 19.151042 15.828125 20.658854 15.497396 22.5 C 16.518229 21.851562 17.885417 21.182292 18.497396 21.5 C 19.109375 21.817708 19.825521 22.664062 20.408854 22.789062 C 20.992188 22.911458 22.164062 23.268229 22.164062 23.838542 C 22.164062 24.408854 20.223958 26.372396 17.5 25.5 C 17.489583 26.979167 19.440104 27.200521 20.588542 27.067708 C 19.098958 27.8125 17.799479 29.044271 18.5 31.5 C 19.388021 30.679688 20.401042 30.002604 21.5 29.5 C 20.786458 30.671875 18.5 33.5 21.5 36.5 C 21.53125 34.932292 22.265625 33.463542 23.5 32.5 C 24.169271 34.263021 23.5 36.5 22.5 38.5 C 25.5 38.5 26.5 36.5 26.5 32.5 C 28.5 33.5 28.5 34.5 28.5 35.5 C 31.5 33.5 30.5 31.5 29.5 29.5 C 30.5 29.5 31.5 30.5 32.5 31.5 C 34.5 28.5 32.5 26.5 30.5 24.5 C 31.145833 24.268229 31.854167 24.268229 32.5 24.5 C 32.5 22.5 31.5 21.5 29.859375 20.677083 " transform="matrix(1.5,0,0,1.5,0,0)"/>
<path style="fill:none;stroke-width:0.75;stroke-linecap:butt;stroke-linejoin:miter;stroke:currentColor;stroke-opacity:1;stroke-miterlimit:7;" d="M 27.5 19.5 C 27.5 19.5 29.460938 17.065104 31.5 17.5 C 31.669271 20.200521 28.5 21.5 28.5 21.5 " transform="matrix(1.5,0,0,1.5,0,0)"/>
<path style=" stroke:none;fill-rule:evenodd;fill:currentColor;fill-opacity:1;" d="M 42.546875 29.683594 C 43.378906 28.847656 44.4375 28.273438 45.589844 28.03125 C 45.167969 29.21875 43.507812 30.464844 42.859375 30.394531 Z M 42.546875 29.683594 "/>
<path style="fill:none;stroke-width:0.75;stroke-linecap:butt;stroke-linejoin:miter;stroke:currentColor;stroke-opacity:1;stroke-miterlimit:7;" d="M 20.200521 19.315104 C 20.622396 19.4375 21.059896 19.5 21.5 19.5 C 22.234375 19.5 23.28125 19.03125 24.252604 20.085938 " transform="matrix(1.5,0,0,1.5,0,0)"/>
<path style="fill:none;stroke-width:0.75;stroke-linecap:butt;stroke-linejoin:miter;stroke:currentColor;stroke-opacity:1;stroke-miterlimit:7;" d="M 20.114583 19.411458 C 20.114583 19.411458 19.739583 21.5 21.5 21.5 C 22.033854 21.510417 22.549479 21.304688 22.927083 20.927083 C 23.304688 20.549479 23.510417 20.033854 23.5 19.5 " transform="matrix(1.5,0,0,1.5,0,0)"/>
<path style=" stroke:none;fill-rule:nonzero;fill:currentColor;fill-opacity:1;" d="M 33.4375 29.761719 C 33.4375 30.335938 32.972656 30.800781 32.398438 30.800781 C 31.824219 30.800781 31.359375 30.335938 31.359375 29.761719 C 31.359375 29.1875 31.824219 28.722656 32.398438 28.722656 C 32.972656 28.722656 33.4375 29.1875 33.4375 29.761719 Z M 33.4375 29.761719 "/>
<path style="fill:none;stroke-width:0.75;stroke-linecap:butt;stroke-linejoin:miter;stroke:currentColor;stroke-opacity:1;stroke-miterlimit:7;" d="M 12.5 22.5 C 12.5 22.5 13.229167 23.208333 15.661458 23.223958 C 17.763021 23.236979 19.513021 22.632812 20.5 24.5 C 18.184896 24.114583 16.914062 24.893229 14.856771 24.893229 C 12.796875 24.893229 12.5 22.5 12.5 22.5 Z M 12.5 22.5 " transform="matrix(1.5,0,0,1.5,0,0)"/>
<path style=" stroke:none;fill-rule:evenodd;fill:currentColor;fill-opacity:1;" d="M 33.289062 33.960938 C 33.710938 33.773438 34.195312 33.800781 34.59375 34.035156 C 35.210938 34.441406 35.714844 35.085938 36.203125 35.210938 C 36.5625 35.285156 36.929688 35.308594 37.296875 35.273438 C 36.890625 35.574219 36.390625 35.730469 35.882812 35.707031 C 35.28125 35.554688 34.925781 35.078125 34.09375 34.242188 C 33.851562 34.085938 33.578125 33.988281 33.289062 33.960938 Z M 33.289062 33.960938 "/>
<path style="fill:none;stroke-width:0.75;stroke-linecap:butt;stroke-linejoin:miter;stroke:currentColor;stroke-opacity:1;stroke-miterlimit:10;" d="M 23.890625 26.401042 C 24.104167 26.958333 24.075521 27.580729 23.815104 28.117188 C 24.617188 27.893229 25.213542 27.21875 25.341146 26.395833 C 25.898438 27.018229 25.557292 28.450521 25.315104 28.875 C 26.799479 28.348958 27.640625 26.78125 27.255208 25.255208 C 27.963542 25.794271 28.40625 26.611979 28.46875 27.5 C 29.351562 26.002604 29.148438 24.101562 27.96875 22.822917 " transform="matrix(1.5,0,0,1.5,0,0)"/>
</g>
</svg>
