<svg id="Layer_1" data-name="Layer 1" xmlns="http://www.w3.org/2000/svg" viewBox="0 0 34 32" fill="currentColor">
	<g id="Page-1">
		<g id="Group">
			<path id="Fill-3" d="M156,208.73c0-1.16.1-4,.15-5.69.07-2.15.49-3.45,1.32-4.24,1.15-1.09,2.49-1.35,5.68-1.53a178.94,178.94,0,0,1,24.4.33,2.86,2.86,0,0,1,1.55.41c.42.31.47.65.58,2.43.06,1,.19,3.75.26,5.25-3.26-.18-8.79-.48-13.61-.53s-9.16,0-9.67.1a2.28,2.28,0,0,0-1.68.9l25,4.94V215Z" transform="translate(-156 -197)"  />
			<path id="Fill-5" d="M156,211l34,6.5c0,.95-.1,4-.16,5.68-.07,2.07-.49,3.33-1.33,4.09-1.15,1-2.49,1.3-5.68,1.47a185.83,185.83,0,0,1-24.4-.32,2.93,2.93,0,0,1-1.55-.4c-.42-.29-.47-.62-.58-2.34-.07-1.15-.24-4.55-.29-5.68,4.38.3,11.12.53,16.61.53,1.38,0,5,0,5.92,0a2.59,2.59,0,0,0,2.26-1L156,215.21Z" transform="translate(-156 -197)" />
		</g>
	</g>
</svg>
