<?xml version="1.0" encoding="UTF-8"?>
<svg xmlns="http://www.w3.org/2000/svg" xmlns:xlink="http://www.w3.org/1999/xlink" fill="currentColor" viewBox="0 0 75 75" version="1.1">
<g id="surface15870">
<path style=" stroke:none;fill-rule:nonzero;fill-opacity:1;" d="M 28.253906 10.492188 C 31.757812 9.335938 35.449219 8.84375 39.132812 9.042969 C 39.519531 9.023438 39.90625 9.089844 40.261719 9.234375 C 44.304688 12.449219 47.507812 16.601562 49.585938 21.328125 C 51.839844 26.785156 52.671875 32.726562 52.003906 38.589844 C 51.589844 42.855469 50.570312 47.042969 48.96875 51.019531 L 51.847656 51.019531 C 52.128906 50.289062 52.382812 49.554688 52.679688 48.832031 C 56.03125 49.257812 59.136719 50.800781 61.5 53.214844 C 59.148438 55.644531 56.03125 57.191406 52.671875 57.601562 C 52.398438 56.882812 52.125 56.175781 51.871094 55.457031 C 43.046875 55.457031 34.222656 55.457031 25.398438 55.457031 C 24.957031 55.488281 24.535156 55.640625 24.175781 55.898438 C 23.203125 56.386719 22.246094 56.898438 21.277344 57.386719 C 20.921875 57.550781 20.527344 57.617188 20.136719 57.585938 C 19 57.585938 17.863281 57.585938 16.71875 57.585938 C 14.316406 55.023438 12.371094 52.070312 10.96875 48.851562 L 18.765625 48.851562 C 19.320312 48.796875 19.882812 48.851562 20.410156 49.027344 C 21.703125 49.585938 23 50.148438 24.292969 50.71875 C 25.269531 51.296875 26.441406 50.953125 27.519531 51.039062 C 27.355469 48.273438 26.554688 45.582031 25.183594 43.175781 C 23.726562 40.847656 21.699219 38.933594 19.289062 37.613281 C 16.058594 35.878906 12.578125 34.664062 8.96875 34.019531 C 9.449219 30.207031 10.703125 26.53125 12.648438 23.21875 C 15.1875 23.792969 17.6875 24.542969 20.125 25.453125 C 22.742188 26.382812 25.21875 27.667969 27.488281 29.273438 L 28.214844 28.921875 C 26.75 27.285156 25.097656 25.824219 23.296875 24.570312 C 20.734375 22.699219 18.050781 21 15.265625 19.476562 C 17.605469 16.617188 20.484375 14.242188 23.730469 12.480469 C 25.957031 13.390625 28.035156 14.617188 29.902344 16.128906 C 32.742188 18.40625 35.378906 20.929688 37.78125 23.664062 L 38.71875 23.417969 C 36.308594 18.371094 32.472656 14.128906 28.253906 10.492188 Z M 41.292969 40.777344 C 39.425781 41.371094 38.394531 43.367188 38.988281 45.234375 C 39.582031 47.101562 41.578125 48.132812 43.445312 47.539062 C 45.3125 46.945312 46.34375 44.949219 45.75 43.082031 C 45.527344 42.382812 45.09375 41.769531 44.507812 41.328125 C 43.585938 40.636719 42.390625 40.433594 41.292969 40.777344 Z M 41.292969 40.777344 "/>
<path style="fill:none;stroke-width:2;stroke-linecap:butt;stroke-linejoin:miter;stroke:currentColor;stroke-opacity:1;stroke-miterlimit:10;" d="M 47 25 C 47 37.151042 37.151042 47 25 47 C 12.848958 47 3 37.151042 3 25 C 3 12.848958 12.848958 3 25 3 C 37.151042 3 47 12.848958 47 25 Z M 47 25 " transform="matrix(1.5,0,0,1.5,0,0)"/>
</g>
</svg>
